HIERARCHY
ROOT Hips
{
	OFFSET -3.958830 18.904000 13.208200
	CHANNELS 6 Xposition Yposition Zposition Zrotation Yrotation Xrotation 
	JOINT LHipJoint
	{
		OFFSET 0.000000 0.000000 0.000000
		CHANNELS 3 Zrotation Yrotation Xrotation
		JOINT LeftUpLeg
		{
			OFFSET 1.800000 -1.400000 0.085000
			CHANNELS 3 Zrotation Yrotation Xrotation
			JOINT LeftLeg
			{
				OFFSET 2.215000 -6.000000 0.000000
				CHANNELS 3 Zrotation Yrotation Xrotation
				JOINT LeftFoot
				{
					OFFSET 2.500000 -6.900000 0.000000
					CHANNELS 3 Zrotation Yrotation Xrotation
					JOINT LeftToeBase
					{
						OFFSET 0.200000 -0.500000 1.950000
						CHANNELS 3 Zrotation Yrotation Xrotation
						End Site
						{
							OFFSET 0.000000 0.000000 0.000000
						}
					}
				}
			}
		}
	}
	JOINT RHipJoint
	{
		OFFSET 0.000000 0.000000 0.000000
		CHANNELS 3 Zrotation Yrotation Xrotation
		JOINT RightUpLeg
		{
			OFFSET -1.800000 -1.400000 0.085000
			CHANNELS 3 Zrotation Yrotation Xrotation
			JOINT RightLeg
			{
				OFFSET -2.215000 -6.000000 0.000000
				CHANNELS 3 Zrotation Yrotation Xrotation
				JOINT RightFoot
				{
					OFFSET -2.500000 -6.900000 0.000000
					CHANNELS 3 Zrotation Yrotation Xrotation
					JOINT RightToeBase
					{
						OFFSET -0.200000 -0.500000 1.950000
						CHANNELS 3 Zrotation Yrotation Xrotation
						End Site
						{
							OFFSET 0.000000 0.000000 0.000000
						}
					}
				}
			}
		}
	}
	JOINT LowerBack
	{
		OFFSET 0.000000 0.000000 0.000000
		CHANNELS 3 Zrotation Yrotation Xrotation
		JOINT Spine
		{
			OFFSET -0.087000 1.940000 -0.288900
			CHANNELS 3 Zrotation Yrotation Xrotation
			JOINT Spine1
			{
				OFFSET 0.000000 1.950000 0.060000
				CHANNELS 3 Zrotation Yrotation Xrotation
				JOINT Neck
				{
					OFFSET 0.000000 0.000000 0.000000
					CHANNELS 3 Zrotation Yrotation Xrotation
					JOINT Neck1
					{
						OFFSET 0.000000 1.600000 0.340000
						CHANNELS 3 Zrotation Yrotation Xrotation
						JOINT Head
						{
							OFFSET 0.000000 1.667000 -0.240000
							CHANNELS 3 Zrotation Yrotation Xrotation
							End Site
							{
								OFFSET 0.000000 0.000000 0.000000
							}
						}
					}
				}
				JOINT LeftShoulder
				{
					OFFSET 0.000000 0.000000 0.000000
					CHANNELS 3 Zrotation Yrotation Xrotation
					JOINT LeftArm
					{
						OFFSET 2.700000 1.550000 -0.730000
						CHANNELS 3 Zrotation Yrotation Xrotation
						JOINT LeftForeArm
						{
							OFFSET 5.450000 0.000000 0.000000
							CHANNELS 3 Zrotation Yrotation Xrotation
							JOINT LeftHand
							{
								OFFSET 3.450000 0.000000 0.000000
								CHANNELS 3 Zrotation Yrotation Xrotation
								JOINT LeftHandIndex1
								{
									OFFSET 0.750000 0.000000 0.000000
									CHANNELS 3 Zrotation Yrotation Xrotation
									End Site
									{
										OFFSET 0.000000 0.000000 0.000000
									}
								}
							}
						}
					}
				}
				JOINT RightShoulder
				{
					OFFSET 0.000000 0.000000 0.000000
					CHANNELS 3 Zrotation Yrotation Xrotation
					JOINT RightArm
					{
						OFFSET -2.700000 1.550000 -0.730000
						CHANNELS 3 Zrotation Yrotation Xrotation
						JOINT RightForeArm
						{
							OFFSET -5.450000 0.000000 0.000000
							CHANNELS 3 Zrotation Yrotation Xrotation
							JOINT RightHand
							{
								OFFSET -3.450000 0.000000 0.000000
								CHANNELS 3 Zrotation Yrotation Xrotation
								JOINT RightHandIndex1
								{
									OFFSET -0.750000 0.000000 0.000000
									CHANNELS 3 Zrotation Yrotation Xrotation
									End Site
									{
										OFFSET 0.000000 0.000000 0.000000
									}
								}
							}
						}
					}
				}
			}
		}
	}
}
MOTION
Frames: 12
Frame Time: 0.016667
0.013650 16.950680 -0.962870 -3.899408 0.025285 3.439202 -15.711027 13.556652 3.215109 4.168077 -0.287657 -4.341260 -8.832414 4.512070 2.359513 -0.415919 4.414601 3.415416 0.676810 0.180260 0.470490 17.626484 -10.340280 2.582578 -23.524284 -0.027784 -12.278910 3.877606 -4.195842 3.240092 -0.515002 -3.760528 3.176584 0.094020 0.228770 0.489170 -1.903992 -3.138567 -7.703371 -3.681614 2.620743 7.850097 8.680293 1.004993 3.000756 1.940522 1.231782 -11.048344 -0.591717 -0.479031 36.306711 -4.189540 1.432570 -14.757930 -19.115100 -11.309436 4.236256 9.408844 5.747178 0.736791 7.675568 -7.664605 -0.910464 -3.747974 2.886381 0.863950 0.155050 0.131620 0.377110 16.977693 11.320758 8.384683 -8.330486 -7.256402 -1.238359 -10.463177 3.158846 -0.066474 2.133017 -1.435635 -0.168620 0.123300 -0.200640 -0.304800 
0.011610 16.951610 -0.962620 -3.824652 0.019144 3.426632 -15.712217 13.568159 3.212607 4.083657 -0.282568 -4.363240 -8.792346 4.530876 2.507375 -0.419955 4.413028 3.418544 0.669540 0.171280 0.468490 17.623024 -10.340226 2.587227 -23.582570 -0.033897 -12.255419 3.869607 -4.200800 3.222977 -0.515512 -3.759031 3.178471 0.089130 0.232250 0.485590 -1.897302 -3.156111 -7.709883 -3.766069 2.602153 7.927164 8.647400 1.004527 2.887335 1.946386 1.188711 -11.054600 -0.688072 -0.466681 36.371228 -4.161630 1.410910 -14.915760 -19.118813 -11.300309 4.232292 9.637482 5.961167 0.767516 7.604559 -7.668853 -0.906624 -3.746892 2.876246 0.869970 0.153370 0.131890 0.374800 16.975716 11.351727 8.382321 -8.550452 -7.374601 -1.213370 -10.261471 3.276657 -0.055222 2.128759 -1.424047 -0.174660 0.131630 -0.195880 -0.306210 
0.006610 16.954260 -0.961830 -3.765897 0.064543 3.438480 -15.715507 13.585233 3.218645 4.070620 -0.285428 -4.388363 -8.822638 4.552046 2.575201 -0.427837 4.425523 3.419922 0.659770 0.155270 0.468060 17.616546 -10.339843 2.583912 -23.577796 -0.039119 -12.225259 3.800578 -4.196498 3.246518 -0.512577 -3.746509 3.186828 0.083330 0.237840 0.476700 -1.883869 -3.190840 -7.720269 -3.840884 2.541260 8.009908 8.643283 0.970230 2.692052 1.955639 1.051678 -11.046099 -0.961180 -0.440552 36.397394 -4.158480 1.347630 -15.088380 -19.121379 -11.256843 4.206744 9.990405 6.195149 0.824105 7.453955 -7.544824 -0.905103 -3.747399 2.858402 0.879750 0.150980 0.127600 0.370580 16.975926 11.417562 8.372496 -9.033259 -7.596079 -1.161660 -9.930194 3.395183 -0.039703 2.119974 -1.408516 -0.187700 0.146160 -0.188100 -0.311950 
0.002290 16.955460 -0.959230 -3.710585 0.080478 3.449499 -15.719110 13.592926 3.222352 4.054218 -0.274482 -4.362936 -8.848865 4.561715 2.539031 -0.449924 4.460308 3.420123 0.633630 0.123450 0.453760 17.613636 -10.329836 2.580931 -23.622243 -0.043013 -12.174570 3.822146 -4.213592 3.249353 -0.504702 -3.749493 3.191505 0.077980 0.262920 0.465000 -1.875264 -3.225609 -7.722718 -3.853863 2.484651 8.038278 8.588651 0.951513 2.598717 1.965056 0.908499 -10.969575 -1.205906 -0.390130 36.188686 -4.266390 1.312820 -15.249450 -19.169569 -11.194083 4.142689 10.460057 6.374447 0.907620 7.297995 -7.350865 -0.917409 -3.763990 2.822868 0.892160 0.159810 0.114890 0.366370 17.010578 11.459507 8.324183 -9.697148 -7.872815 -1.093890 -9.520427 3.468431 -0.024789 2.100687 -1.383738 -0.218400 0.178360 -0.166450 -0.317820 
-0.001570 16.954640 -0.956120 -3.669797 -0.011409 3.467123 -15.719828 13.587182 3.225581 4.022428 -0.254846 -4.270457 -8.888103 4.561468 2.414413 -0.463869 4.490170 3.422370 0.618910 0.101700 0.447540 17.616228 -10.316824 2.582550 -23.642023 -0.038800 -12.138795 3.835279 -4.210429 3.158812 -0.497716 -3.751694 3.201267 0.075420 0.282110 0.453120 -1.877384 -3.239253 -7.723604 -3.789333 2.462572 8.006839 8.464639 0.978385 2.598003 1.956777 0.743226 -10.887247 -1.485465 -0.339592 35.939831 -4.254900 1.241290 -15.343550 -19.210477 -11.150877 4.076438 11.028096 6.467892 0.999150 6.961607 -6.904304 -0.926197 -3.776574 2.794172 0.900230 0.167170 0.101610 0.364640 17.067549 11.526735 8.290833 -10.397708 -8.324144 -0.991283 -9.131385 3.631153 -0.016667 2.078960 -1.370799 -0.241520 0.204070 -0.153800 -0.324230 
-0.003900 16.953120 -0.954290 -3.764666 -0.044158 3.506080 -15.713988 13.587802 3.230948 4.153734 -0.256108 -4.259687 -8.964727 4.569930 2.309365 -0.473248 4.520773 3.421018 0.601980 0.080340 0.437230 17.622255 -10.315776 2.576916 -23.511063 -0.028119 -12.135583 3.833315 -4.205135 3.171013 -0.486064 -3.742203 3.213931 0.070540 0.301990 0.444140 -1.894273 -3.248179 -7.724981 -3.470387 2.373900 8.004153 8.295018 0.950913 2.636449 1.952390 0.531171 -10.833354 -1.823682 -0.270378 35.567486 -4.221780 1.163470 -15.323810 -19.180367 -11.079730 4.042947 11.363451 6.557732 1.073588 6.715210 -6.467579 -0.939393 -3.792929 2.772107 0.901250 0.176370 0.086390 0.360660 17.030579 11.589526 8.259401 -11.020459 -8.757205 -0.890278 -8.831142 3.828643 -0.012592 2.061144 -1.362758 -0.258840 0.223580 -0.139030 -0.326860 
-0.006430 16.951690 -0.951480 -3.809328 -0.145971 3.580483 -15.708540 13.574743 3.231978 4.269965 -0.253677 -4.253396 -9.129414 4.594813 2.209539 -0.471854 4.551328 3.421486 0.587670 0.068720 0.428600 17.631753 -10.316909 2.564921 -23.372248 -0.017223 -12.195879 3.696047 -4.167799 3.161791 -0.471409 -3.730711 3.226280 0.069240 0.324630 0.434590 -1.914362 -3.228555 -7.707835 -3.282442 2.335608 7.888599 8.169442 0.945639 2.735742 1.943394 0.456099 -10.727606 -1.850710 -0.274891 34.938601 -4.318480 1.153980 -15.017040 -19.238604 -11.023010 4.017339 11.634037 6.713583 1.129583 6.791715 -6.188824 -0.948227 -3.813032 2.762048 0.885870 0.192070 0.066770 0.357310 17.081548 11.587466 8.169913 -11.613642 -9.079817 -0.770867 -8.538442 3.989304 -0.031985 2.047469 -1.366759 -0.269270 0.239790 -0.129010 -0.324330 
-0.011070 16.949040 -0.949660 -3.771674 -0.250890 3.656423 -15.711278 13.552159 3.222109 4.318662 -0.246857 -4.238361 -9.303734 4.620406 2.147434 -0.489858 4.599352 3.414059 0.574190 0.057550 0.414170 17.640765 -10.299019 2.549580 -23.297707 -0.005439 -12.211980 3.538762 -4.125353 3.040192 -0.459051 -3.737730 3.229076 0.080510 0.352010 0.430800 -1.922453 -3.223118 -7.661626 -3.357893 2.356289 7.664851 8.229082 0.927310 3.083012 1.912779 0.444689 -10.544665 -1.696254 -0.284419 33.964578 -4.508730 1.202590 -14.965680 -19.215363 -10.909518 3.987069 11.792534 6.801396 1.208241 6.850673 -5.944623 -0.969793 -3.837788 2.751595 0.878580 0.213570 0.048810 0.360140 17.090817 11.495280 8.006018 -12.215239 -9.272435 -0.660201 -8.203811 4.208407 -0.057865 2.020193 -1.374993 -0.291730 0.260550 -0.116240 -0.324910 
-0.014710 16.948990 -0.948370 -3.657708 -0.327177 3.709193 -15.718287 13.543611 3.218368 4.281251 -0.241077 -4.219810 -9.397674 4.633099 2.121459 -0.495770 4.623029 3.412027 0.572470 0.054770 0.413260 17.640490 -10.285194 2.539971 -23.323431 -0.002771 -12.248832 3.418430 -4.100899 2.980615 -0.455303 -3.741311 3.229369 0.085660 0.364310 0.432710 -1.911219 -3.233320 -7.636087 -3.598654 2.386983 7.528662 8.397361 0.901281 3.192384 1.899797 0.453849 -10.466085 -1.593889 -0.297691 33.495723 -4.694920 1.262720 -14.934540 -19.175206 -10.803507 3.982813 11.834783 6.970837 1.267681 6.793770 -5.771955 -0.980683 -3.848780 2.748734 0.875360 0.224580 0.042090 0.362970 17.078704 11.404233 7.923090 -12.493540 -9.345235 -0.622416 -8.295623 4.178652 -0.072492 2.011367 -1.382048 -0.299610 0.268100 -0.113930 -0.325490 
-0.015530 16.949050 -0.949170 -3.522000 -0.344919 3.740092 -15.721568 13.541496 3.215261 4.173981 -0.236835 -4.216276 -9.416193 4.639049 2.150769 -0.498829 4.624593 3.413841 0.573670 0.059470 0.412050 17.641025 -10.274467 2.537433 -23.417629 -0.013051 -12.284435 3.360388 -4.088749 2.944538 -0.453542 -3.746926 3.227345 0.092060 0.369050 0.430220 -1.907576 -3.249224 -7.623594 -3.765078 2.375900 7.511090 8.435658 0.872323 3.226307 1.882448 0.406105 -10.408211 -1.611151 -0.256661 33.106928 -4.714560 1.311360 -15.022260 -19.150449 -10.680355 3.951309 11.898805 7.090537 1.306585 6.756503 -5.609546 -0.983047 -3.851052 2.749204 0.871690 0.228490 0.038850 0.365500 17.087333 11.320415 7.878239 -12.606703 -9.527972 -0.578165 -8.475513 4.343696 -0.083103 2.005558 -1.391312 -0.303400 0.272650 -0.115530 -0.324240 
-0.013780 16.947250 -0.951160 -3.442539 -0.320628 3.758197 -15.720562 13.541693 3.211770 4.107268 -0.241784 -4.248038 -9.461226 4.656766 2.247206 -0.501642 4.626321 3.414010 0.581140 0.069410 0.412410 17.643996 -10.268159 2.535773 -23.519607 -0.024415 -12.330680 3.392161 -4.099623 2.979641 -0.454154 -3.757100 3.224329 0.099410 0.372120 0.432230 -1.914138 -3.262898 -7.614659 -3.786850 2.325683 7.525291 8.403770 0.816666 3.298838 1.853409 0.344911 -10.370186 -1.653688 -0.159455 32.740924 -4.690490 1.391210 -15.146480 -19.127628 -10.566756 3.919432 11.973919 7.207636 1.348565 6.672079 -5.423860 -0.987609 -3.851560 2.755583 0.869190 0.232280 0.037520 0.371140 17.110897 11.227755 7.865220 -12.538909 -9.564776 -0.585059 -8.961744 4.269935 -0.095533 2.005171 -1.402128 -0.302730 0.272940 -0.119870 -0.322680 
-0.009050 16.944520 -0.952980 -3.402001 -0.270818 3.781715 -15.713811 13.540541 3.208451 4.015575 -0.244336 -4.274924 -9.422360 4.655839 2.311434 -0.497696 4.611847 3.418563 0.583100 0.078690 0.407120 17.651072 -10.269521 2.538216 -23.603267 -0.038774 -12.384417 3.447696 -4.111055 3.030916 -0.452811 -3.766406 3.218293 0.104110 0.374910 0.432170 -1.935259 -3.260680 -7.612631 -3.645312 2.239494 7.555407 8.248072 0.761923 3.341570 1.823261 0.259898 -10.354922 -1.742925 -0.053776 32.402468 -4.563470 1.437210 -15.101890 -19.103989 -10.469474 3.885369 12.038894 7.339322 1.373323 6.595781 -5.381417 -0.980314 -3.849285 2.768186 0.859470 0.234690 0.035650 0.374570 17.127445 11.152182 7.878064 -12.410922 -9.737789 -0.560486 -9.344097 4.333349 -0.107236 2.009437 -1.415352 -0.298390 0.270200 -0.123150 -0.316090 
